<svg xmlns="http://www.w3.org/2000/svg" xmlns:xlink="http://www.w3.org/1999/xlink" version="1.1" x="0px" y="0px" viewBox="0 0 300 300" enable-background="new 0 0 300 300" xml:space="preserve" aria-hidden="true" width="300px" height="300px" style="fill:url(#CerosGradient_id86dae3c3a);"><defs><linearGradient class="cerosgradient" data-cerosgradient="true" id="CerosGradient_id86dae3c3a" gradientUnits="userSpaceOnUse" x1="50%" y1="100%" x2="50%" y2="0%"><stop offset="0%" stop-color="#D1D1D1"/><stop offset="100%" stop-color="#D1D1D1"/></linearGradient><linearGradient/></defs><g><path fill="#000000" d="M260.389,150.868c-6.581-6.578-17.251-6.578-23.831,0l-69.427,69.426V37.873   c0-9.307-7.546-16.851-16.851-16.851c-9.307,0-16.851,7.544-16.851,16.851v182.498l-71.011-71.01   c-6.58-6.578-17.251-6.578-23.831,0c-6.58,6.582-6.58,17.25,0,23.83l96.611,96.609c0.499,0.499,1.03,0.95,1.573,1.371   c3.068,4.126,7.97,6.811,13.508,6.811c5.367,0,10.139-2.519,13.224-6.43c0.092-0.085,0.186-0.16,0.275-0.249l96.609-96.609   C266.966,168.119,266.966,157.447,260.389,150.868z" style="fill:url(#CerosGradient_id86dae3c3a);"/></g></svg>